<?xml version="1.0" standalone="no"?>
<!DOCTYPE svg PUBLIC "-//W3C//DTD SVG 1.1//EN" "http://www.w3.org/Graphics/SVG/1.1/DTD/svg11.dtd">
<svg xmlns="http://www.w3.org/2000/svg" version="1.1" width="16px" height="16px" viewBox="0 0 16 16">
  <!-- Copyright (c) 2017 Sanctuary -->
  <path
    fill-rule="evenodd"
    fill="#000"
    d="M 8,0
       a 8,8 0 0,1 0,16
       a 8,8 0 0,1 0,-16
       Z
       m 0,1
       a 7,7 0 0,1 0,14
       a 7,7 0 0,1 0,-14
       Z
       M 9.81 5.43
       Q 9.57 5.10 9.16 4.89
       Q 8.74 4.67 8.22 4.67
       Q 7.95 4.67 7.67 4.75
       Q 7.38 4.82 7.15 4.99
       Q 6.92 5.16 6.78 5.40
       Q 6.63 5.65 6.63 6.00
       Q 6.63 6.33 6.77 6.56
       Q 6.90 6.78 7.12 6.94
       Q 7.35 7.09 7.65 7.20
       Q 7.96 7.31 8.30 7.43
       Q 8.72 7.55 9.15 7.71
       Q 9.57 7.88 9.92 8.14
       Q 10.26 8.41 10.48 8.80
       Q 10.70 9.20 10.70 9.81
       Q 10.70 10.44 10.46 10.91
       Q 10.23 11.38 9.84 11.68
       Q 9.45 11.99 8.93 12.14
       Q 8.42 12.29 7.88 12.29
       Q 7.11 12.29 6.39 11.99
       Q 5.67 11.69 5.19 11.10
       L 6.08 10.35
       Q 6.37 10.78 6.85 11.04
       Q 7.34 11.31 7.90 11.31
       Q 8.19 11.31 8.48 11.23
       Q 8.77 11.15 9.00 10.97
       Q 9.24 10.80 9.39 10.54
       Q 9.54 10.28 9.54 9.91
       Q 9.54 9.55 9.38 9.30
       Q 9.23 9.05 8.96 8.88
       Q 8.70 8.70 8.34 8.58
       Q 7.99 8.46 7.60 8.34
       Q 7.21 8.22 6.83 8.05
       Q 6.45 7.89 6.15 7.63
       Q 5.85 7.37 5.67 6.99
       Q 5.48 6.61 5.48 6.04
       Q 5.48 5.43 5.73 5.00
       Q 5.98 4.56 6.38 4.27
       Q 6.77 3.98 7.27 3.85
       Q 7.77 3.72 8.28 3.72
       Q 9.00 3.72 9.62 3.97
       Q 10.24 4.22 10.62 4.65
       L 9.81 5.43
       Z"
    />
</svg>
